{
  "asset": {
    "generator": "glTF-Transform v4.4.2",
    "version": "2.0",
    "extras": {
      "author": "Pedro B. Goulart (https://sketchfab.com/Pebegou)",
      "license": "CC-BY-4.0 (http://creativecommons.org/licenses/by/4.0/)",
      "source": "https://sketchfab.com/3d-models/old-king-armor-f5a4479d211e49d49937b55fd9478e85",
      "title": "Old king armor"
    }
  },
  "accessors": [
    {
      "type": "VEC3",
      "componentType": 5126,
      "count": 20048,
      "max": [
        43.603607177734375,
        160.0265350341797,
        19.397762298583984
      ],
      "min": [
        -43.603607177734375,
        0.04708949476480484,
        -17.383880615234375
      ],
      "bufferView": 0,
      "byteOffset": 0
    },
    {
      "type": "VEC3",
      "componentType": 5126,
      "count": 20048,
      "bufferView": 0,
      "byteOffset": 12
    },
    {
      "type": "VEC4",
      "componentType": 5126,
      "count": 20048,
      "bufferView": 0,
      "byteOffset": 24
    },
    {
      "type": "VEC2",
      "componentType": 5126,
      "count": 20048,
      "bufferView": 0,
      "byteOffset": 40
    },
    {
      "type": "VEC4",
      "componentType": 5123,
      "count": 20048,
      "bufferView": 0,
      "byteOffset": 48
    },
    {
      "type": "VEC4",
      "componentType": 5126,
      "count": 20048,
      "bufferView": 0,
      "byteOffset": 56
    },
    {
      "type": "SCALAR",
      "componentType": 5125,
      "count": 108132,
      "bufferView": 1,
      "byteOffset": 0
    },
    {
      "type": "SCALAR",
      "componentType": 5125,
      "count": 12066,
      "bufferView": 1,
      "byteOffset": 432528
    },
    {
      "type": "VEC3",
      "componentType": 5126,
      "count": 2625,
      "max": [
        35.586517333984375,
        175.97132873535156,
        18.463510513305664
      ],
      "min": [
        -29.627748489379883,
        122.5924072265625,
        -18.267335891723633
      ],
      "bufferView": 2,
      "byteOffset": 0
    },
    {
      "type": "VEC3",
      "componentType": 5126,
      "count": 2625,
      "bufferView": 2,
      "byteOffset": 12
    },
    {
      "type": "VEC4",
      "componentType": 5126,
      "count": 2625,
      "bufferView": 2,
      "byteOffset": 24
    },
    {
      "type": "VEC2",
      "componentType": 5126,
      "count": 2625,
      "bufferView": 2,
      "byteOffset": 40
    },
    {
      "type": "VEC4",
      "componentType": 5123,
      "count": 2625,
      "bufferView": 2,
      "byteOffset": 48
    },
    {
      "type": "VEC4",
      "componentType": 5126,
      "count": 2625,
      "bufferView": 2,
      "byteOffset": 56
    },
    {
      "type": "MAT4",
      "componentType": 5126,
      "count": 77,
      "bufferView": 3,
      "byteOffset": 0
    }
  ],
  "bufferViews": [
    {
      "buffer": 0,
      "byteOffset": 0,
      "byteLength": 1443456,
      "byteStride": 72,
      "target": 34962
    },
    {
      "buffer": 0,
      "byteOffset": 1443456,
      "byteLength": 480792,
      "target": 34963
    },
    {
      "buffer": 0,
      "byteOffset": 1924248,
      "byteLength": 189000,
      "byteStride": 72,
      "target": 34962
    },
    {
      "buffer": 0,
      "byteOffset": 2113248,
      "byteLength": 4928
    }
  ],
  "samplers": [
    {
      "magFilter": 9729,
      "minFilter": 9987,
      "wrapS": 10497,
      "wrapT": 10497
    }
  ],
  "textures": [
    {
      "source": 0,
      "sampler": 0
    },
    {
      "source": 2,
      "sampler": 0
    },
    {
      "source": 1,
      "sampler": 0
    }
  ],
  "images": [
    {
      "mimeType": "image/png",
      "uri": "textures/Armor_baseColor.png"
    },
    {
      "mimeType": "image/png",
      "uri": "textures/Armor_metallicRoughness.png"
    },
    {
      "mimeType": "image/png",
      "uri": "textures/Armor_normal.png"
    }
  ],
  "buffers": [
    {
      "uri": "scene.bin",
      "byteLength": 2118176
    }
  ],
  "materials": [
    {
      "name": "Armor",
      "doubleSided": true,
      "pbrMetallicRoughness": {
        "baseColorTexture": {
          "index": 0
        },
        "metallicRoughnessTexture": {
          "index": 2
        }
      },
      "normalTexture": {
        "index": 1
      }
    }
  ],
  "meshes": [
    {
      "name": "ArmorSymmetric_Armor_0",
      "primitives": [
        {
          "attributes": {
            "JOINTS_0": 4,
            "NORMAL": 1,
            "POSITION": 0,
            "TANGENT": 2,
            "TEXCOORD_0": 3,
            "TEXCOORD_1": 3,
            "TEXCOORD_2": 3,
            "WEIGHTS_0": 5
          },
          "mode": 4,
          "material": 0,
          "indices": 6
        }
      ]
    },
    {
      "name": "ArmorAsymmetric_Armor_0",
      "primitives": [
        {
          "attributes": {
            "JOINTS_0": 12,
            "NORMAL": 9,
            "POSITION": 8,
            "TANGENT": 10,
            "TEXCOORD_0": 11,
            "TEXCOORD_1": 11,
            "TEXCOORD_2": 11,
            "WEIGHTS_0": 13
          },
          "mode": 4,
          "material": 0,
          "indices": 7
        }
      ]
    }
  ],
  "nodes": [
    {
      "name": "Sketchfab_model",
      "rotation": [
        -0.7071067811865475,
        0,
        0,
        0.7071067811865476
      ],
      "children": [
        1
      ]
    },
    {
      "name": "b3da62f4f7d24c3db435c9f17c3be5e8.fbx",
      "rotation": [
        0.7071067811865475,
        0,
        0,
        0.7071067811865476
      ],
      "children": [
        2
      ]
    },
    {
      "name": "RootNode",
      "children": [
        3
      ]
    },
    {
      "name": "RoyalArmorArmature",
      "rotation": [
        -0.7071068387877038,
        0,
        0,
        0.7071067235853866
      ],
      "scale": [
        100,
        100.00000000000001,
        100.00000000000001
      ],
      "children": [
        4
      ]
    },
    {
      "name": "Object_4",
      "children": [
        5,
        7,
        9,
        6,
        8
      ]
    },
    {
      "name": "_rootJoint",
      "children": [
        10
      ]
    },
    {
      "name": "Object_6",
      "translation": [
        9.493352819643944e-23,
        0.000013295224221110402,
        -8.605829862062819e-7
      ]
    },
    {
      "name": "Object_7",
      "mesh": 0,
      "skin": 0
    },
    {
      "name": "Object_8",
      "translation": [
        9.493352819643944e-23,
        0.000013295224221110402,
        -8.605829862062819e-7
      ]
    },
    {
      "name": "Object_9",
      "mesh": 1,
      "skin": 0
    },
    {
      "name": "Hip_01",
      "translation": [
        0,
        -2.6469779601696886e-23,
        0.8620104789733887
      ],
      "rotation": [
        0.6183440685272217,
        -3.035793389603683e-25,
        -1.404513140881761e-17,
        0.785907506942749
      ],
      "children": [
        11,
        72,
        79
      ]
    },
    {
      "name": "Belly_02",
      "translation": [
        1.0856745539758488e-24,
        0.16548267006874084,
        -1.1175870895385742e-8
      ],
      "rotation": [
        0.04869331791996956,
        -9.702700372252069e-18,
        -1.3438038741846566e-17,
        0.9988138675689697
      ],
      "children": [
        12
      ]
    },
    {
      "name": "Torax_03",
      "translation": [
        6.617444900424222e-24,
        0.18458203971385956,
        -2.7755575615628914e-17
      ],
      "rotation": [
        0.12345083802938461,
        4.8164285231794545e-17,
        4.9675808908724944e-17,
        0.992350697517395
      ],
      "children": [
        13,
        16,
        44
      ]
    },
    {
      "name": "Neck_04",
      "translation": [
        4.342698215903395e-24,
        0.23528093099594116,
        -1.1175870895385742e-8
      ],
      "rotation": [
        0.15409673750400543,
        0.02889443375170231,
        -0.007755046244710684,
        0.987602710723877
      ],
      "children": [
        14
      ]
    },
    {
      "name": "Head_05",
      "translation": [
        1.4585914698272973e-9,
        0.09749414771795273,
        -4.122557584196329e-8
      ],
      "rotation": [
        -0.20848649740219116,
        0.03308146074414253,
        0.011851285584270954,
        0.9773937463760376
      ],
      "children": [
        15
      ]
    },
    {
      "name": "Head_end_057",
      "translation": [
        -6.938893903907228e-18,
        0.12862670421600342,
        8.673617379884035e-19
      ]
    },
    {
      "name": "Clavicule.L_06",
      "translation": [
        0.008378741331398487,
        0.1657402664422989,
        0.10249854624271393
      ],
      "rotation": [
        0.32632365822792053,
        0.6317370533943176,
        -0.582680881023407,
        0.3935786783695221
      ],
      "children": [
        17,
        42
      ]
    },
    {
      "name": "Arm.L_07",
      "translation": [
        -1.210719347000122e-8,
        0.23208071291446686,
        2.0023435354232788e-8
      ],
      "rotation": [
        0.2902456521987915,
        0.6576328277587891,
        0.5805876851081848,
        0.38235384225845337
      ],
      "children": [
        18
      ]
    },
    {
      "name": "Forearm.L_08",
      "translation": [
        -1.955777406692505e-8,
        0.28024551272392273,
        -4.470348358154297e-8
      ],
      "rotation": [
        -0.18195019662380219,
        -0.0032618893310427666,
        -0.04784943535923958,
        0.9821374416351318
      ],
      "children": [
        19,
        40
      ]
    },
    {
      "name": "Hand.L_09",
      "translation": [
        -9.080395102500916e-9,
        0.2719291150569916,
        -1.4901161193847656e-8
      ],
      "rotation": [
        -0.030665673315525055,
        -0.1782148778438568,
        0.14309212565422058,
        0.9730486869812012
      ],
      "children": [
        20,
        24,
        28,
        32,
        36
      ]
    },
    {
      "name": "Thumb1.L_010",
      "translation": [
        -0.019266078248620033,
        0.046327438205480576,
        -0.0112324059009552
      ],
      "rotation": [
        -0.08689763396978378,
        0.6738899946212769,
        -0.5410789847373962,
        -0.49553465843200684
      ],
      "children": [
        21
      ]
    },
    {
      "name": "Thumb2.L_011",
      "translation": [
        1.862645149230957e-8,
        0.042473696172237396,
        5.587935447692871e-9
      ],
      "rotation": [
        -0.11652781069278717,
        0.4679878056049347,
        -0.22950705885887146,
        0.8454201221466064
      ],
      "children": [
        22
      ]
    },
    {
      "name": "Thumb3.L_012",
      "translation": [
        -7.264316082000732e-8,
        0.038154665380716324,
        -1.4901161193847656e-8
      ],
      "rotation": [
        0.16867907345294952,
        0.02847088687121868,
        -0.1317203938961029,
        0.9764151573181152
      ],
      "children": [
        23
      ]
    },
    {
      "name": "Thumb3.L_end_058",
      "translation": [
        5.551115123125783e-17,
        0.032280780375003815,
        -2.7755575615628914e-17
      ]
    },
    {
      "name": "Index1.L_013",
      "translation": [
        -0.012538912706077099,
        0.11371926963329315,
        -0.032787833362817764
      ],
      "rotation": [
        0.1535986065864563,
        -0.05963010713458061,
        0.27450212836265564,
        0.9473650455474854
      ],
      "children": [
        25
      ]
    },
    {
      "name": "Index2.L_014",
      "translation": [
        4.377216100692749e-8,
        0.03611418604850769,
        3.725290298461914e-9
      ],
      "rotation": [
        0.30675747990608215,
        -0.2052488476037979,
        0.37387028336524963,
        0.8508782386779785
      ],
      "children": [
        26
      ]
    },
    {
      "name": "Index3.L_015",
      "translation": [
        3.725290298461914e-9,
        0.027207864448428154,
        2.421438694000244e-8
      ],
      "rotation": [
        0.36871033906936646,
        -0.12088015675544739,
        0.2678159177303314,
        0.8818817138671875
      ],
      "children": [
        27
      ]
    },
    {
      "name": "Index3.L_end_059",
      "translation": [
        5.551115123125783e-17,
        0.02210615575313568,
        0
      ]
    },
    {
      "name": "Middle1.L_016",
      "translation": [
        0.0001897148322314024,
        0.11434862017631531,
        -0.009149637073278427
      ],
      "rotation": [
        0.1744135320186615,
        -0.030194465070962906,
        0.26444265246391296,
        0.9480180740356445
      ],
      "children": [
        29
      ]
    },
    {
      "name": "Middle2.L_017",
      "translation": [
        3.608874976634979e-8,
        0.04226222634315491,
        9.313225746154785e-9
      ],
      "rotation": [
        0.33815619349479675,
        -0.21731585264205933,
        0.41567131876945496,
        0.815868616104126
      ],
      "children": [
        30
      ]
    },
    {
      "name": "Middle3.L_018",
      "translation": [
        7.729977369308472e-8,
        0.03236418217420578,
        -3.91155481338501e-8
      ],
      "rotation": [
        0.2710792124271393,
        -0.09718657284975052,
        0.260346382856369,
        0.9215696454048157
      ],
      "children": [
        31
      ]
    },
    {
      "name": "Middle3.L_end_060",
      "translation": [
        5.551115123125783e-17,
        0.025473708286881447,
        1.1102230246251565e-16
      ]
    },
    {
      "name": "Ring1.L_019",
      "translation": [
        0.006303733214735985,
        0.11290489882230759,
        0.015272978693246841
      ],
      "rotation": [
        0.21309009194374084,
        -0.0196052435785532,
        0.2674720883369446,
        0.93950355052948
      ],
      "children": [
        33
      ]
    },
    {
      "name": "Ring2.L_020",
      "translation": [
        -3.1315721571445465e-8,
        0.03749746456742287,
        4.6566128730773926e-9
      ],
      "rotation": [
        0.25723522901535034,
        -0.17849719524383545,
        0.4014101028442383,
        0.8607198596000671
      ],
      "children": [
        34
      ]
    },
    {
      "name": "Ring3.L_021",
      "translation": [
        1.6763806343078613e-8,
        0.026759568601846695,
        -2.9802322387695312e-8
      ],
      "rotation": [
        0.334410697221756,
        -0.14695265889167786,
        0.29771551489830017,
        0.8820090293884277
      ],
      "children": [
        35
      ]
    },
    {
      "name": "Ring3.L_end_061",
      "translation": [
        5.551115123125783e-17,
        0.021962465718388557,
        -1.1102230246251565e-16
      ]
    },
    {
      "name": "Pinky1.L_022",
      "translation": [
        0.018072692677378654,
        0.10707838833332062,
        0.03668750077486038
      ],
      "rotation": [
        0.3220979571342468,
        -0.1622389554977417,
        0.357562780380249,
        0.8614408373832703
      ],
      "children": [
        37
      ]
    },
    {
      "name": "Pinky2.L_023",
      "translation": [
        -3.725290298461914e-9,
        0.030540524050593376,
        -7.450580596923828e-9
      ],
      "rotation": [
        0.3455831706523895,
        -0.16940487921237946,
        0.32717928290367126,
        0.863034188747406
      ],
      "children": [
        38
      ]
    },
    {
      "name": "Pinky3.L_024",
      "translation": [
        -5.122274160385132e-9,
        0.02179468609392643,
        -2.9802322387695312e-8
      ],
      "rotation": [
        0.38839834928512573,
        -0.14534687995910645,
        0.2206098586320877,
        0.8828093409538269
      ],
      "children": [
        39
      ]
    },
    {
      "name": "Pinky3.L_end_062",
      "translation": [
        0,
        0.01788775436580181,
        -1.1102230246251565e-16
      ]
    },
    {
      "name": "ElbowPad.L_025",
      "rotation": [
        0.7742298245429993,
        -0.003285876242443919,
        0.23787418007850647,
        0.5864923596382141
      ],
      "children": [
        41
      ]
    },
    {
      "name": "ElbowPad.L_end_063",
      "translation": [
        0,
        0.12457869946956635,
        0
      ]
    },
    {
      "name": "ShoulderPad.L_026",
      "translation": [
        0.014821573160588741,
        0.2399349808692932,
        0.0019859811291098595
      ],
      "rotation": [
        0.3750547170639038,
        0.641650915145874,
        -0.529104471206665,
        -0.4094710648059845
      ],
      "children": [
        43
      ]
    },
    {
      "name": "ShoulderPad.L_end_064",
      "translation": [
        2.7755575615628914e-17,
        0.14538848400115967,
        0
      ]
    },
    {
      "name": "Clavicule.R_027",
      "translation": [
        -0.008378741331398487,
        0.1657402664422989,
        0.10249854624271393
      ],
      "rotation": [
        -0.32632365822792053,
        0.6317370533943176,
        -0.582680881023407,
        -0.3935786783695221
      ],
      "children": [
        45,
        70
      ]
    },
    {
      "name": "Arm.R_028",
      "translation": [
        1.210719347000122e-8,
        0.23208071291446686,
        2.0023435354232788e-8
      ],
      "rotation": [
        -0.1423158347606659,
        0.5537719130516052,
        0.7173239588737488,
        -0.3981575071811676
      ],
      "children": [
        46
      ]
    },
    {
      "name": "Forearm.R_029",
      "translation": [
        7.729977369308472e-8,
        0.2802453339099884,
        -1.4901161193847656e-8
      ],
      "rotation": [
        -0.2279931902885437,
        0.039979685097932816,
        0.052941687405109406,
        0.9714000821113586
      ],
      "children": [
        47,
        68
      ]
    },
    {
      "name": "Hand.R_030",
      "translation": [
        -6.705522537231445e-8,
        0.271928995847702,
        -8.940696716308594e-8
      ],
      "rotation": [
        -0.030665673315525055,
        0.1782148778438568,
        -0.1430921107530594,
        0.9730486869812012
      ],
      "children": [
        48,
        52,
        56,
        60,
        64
      ]
    },
    {
      "name": "Thumb1.R_031",
      "translation": [
        0.019266095012426376,
        0.046327464282512665,
        -0.011232292279601097
      ],
      "rotation": [
        0.08689767122268677,
        0.6738899946212769,
        -0.5410789847373962,
        0.49553462862968445
      ],
      "children": [
        49
      ]
    },
    {
      "name": "Thumb2.R_032",
      "translation": [
        -1.4901161193847656e-8,
        0.042473673820495605,
        -4.470348358154297e-8
      ],
      "rotation": [
        -0.11652784794569016,
        -0.4679878056049347,
        0.22950701415538788,
        0.8454201221466064
      ],
      "children": [
        50
      ]
    },
    {
      "name": "Thumb3.R_033",
      "translation": [
        -1.4901161193847656e-8,
        0.03815470635890961,
        5.960464477539063e-8
      ],
      "rotation": [
        0.16867908835411072,
        -0.028470873832702637,
        0.1317203789949417,
        0.9764151573181152
      ],
      "children": [
        51
      ]
    },
    {
      "name": "Thumb3.R_end_065",
      "translation": [
        0,
        0.032280780375003815,
        0
      ]
    },
    {
      "name": "Index1.R_034",
      "translation": [
        0.012538900598883629,
        0.11371920257806778,
        -0.032787784934043884
      ],
      "rotation": [
        -0.017917945981025696,
        -0.01185606699436903,
        0.009519497863948345,
        0.9997238516807556
      ],
      "children": [
        53
      ]
    },
    {
      "name": "Index2.R_035",
      "translation": [
        9.313225746154785e-9,
        0.03611413389444351,
        -6.146728992462158e-8
      ],
      "rotation": [
        0.11530150473117828,
        0.1543513685464859,
        -0.12166328728199005,
        0.9736937284469604
      ],
      "children": [
        54
      ]
    },
    {
      "name": "Index3.R_036",
      "translation": [
        -2.380693331360817e-8,
        0.027208000421524048,
        -1.4901161193847656e-8
      ],
      "rotation": [
        0.1293819397687912,
        0.08326917886734009,
        -0.04824032634496689,
        0.9869140982627869
      ],
      "children": [
        55
      ]
    },
    {
      "name": "Index3.R_end_066",
      "translation": [
        0,
        0.02210615575313568,
        0
      ]
    },
    {
      "name": "Middle1.R_037",
      "translation": [
        -0.00018972903490066528,
        0.1143486499786377,
        -0.009149560704827309
      ],
      "rotation": [
        0.009199769236147404,
        -0.03197319805622101,
        0.0256719421595335,
        0.9991167187690735
      ],
      "children": [
        57
      ]
    },
    {
      "name": "Middle2.R_038",
      "translation": [
        -4.6566123179658803e-10,
        0.0422622486948967,
        3.3527612686157227e-8
      ],
      "rotation": [
        0.1477130800485611,
        0.1947324126958847,
        -0.16715770959854126,
        0.9551536440849304
      ],
      "children": [
        58
      ]
    },
    {
      "name": "Middle3.R_039",
      "translation": [
        -5.681067705154419e-8,
        0.03236421197652817,
        -3.725290298461914e-8
      ],
      "rotation": [
        0.016734814271330833,
        0.04825101047754288,
        -0.04802418500185013,
        0.9975396990776062
      ],
      "children": [
        59
      ]
    },
    {
      "name": "Middle3.R_end_067",
      "translation": [
        -5.551115123125783e-17,
        0.025473708286881447,
        0
      ]
    },
    {
      "name": "Ring1.R_040",
      "translation": [
        -0.00630374439060688,
        0.1129048690199852,
        0.01527303084731102
      ],
      "rotation": [
        0.05026809871196747,
        -0.030955417081713676,
        0.024854751303792,
        0.9979464411735535
      ],
      "children": [
        61
      ]
    },
    {
      "name": "Ring2.R_041",
      "translation": [
        -1.3969838619232178e-8,
        0.037497468292713165,
        -7.264316082000732e-8
      ],
      "rotation": [
        0.06522662937641144,
        0.15557417273521423,
        -0.14181315898895264,
        0.97541344165802
      ],
      "children": [
        62
      ]
    },
    {
      "name": "Ring3.R_042",
      "translation": [
        1.3504177331924438e-8,
        0.02675957977771759,
        -2.9802322387695312e-8
      ],
      "rotation": [
        0.08975259214639664,
        0.10533183068037033,
        -0.08469592779874802,
        0.9867503643035889
      ],
      "children": [
        63
      ]
    },
    {
      "name": "Ring3.R_end_068",
      "translation": [
        0,
        0.021962465718388557,
        0
      ]
    },
    {
      "name": "Pinky1.R_043",
      "translation": [
        -0.018072711303830147,
        0.10707841068506241,
        0.036687567830085754
      ],
      "rotation": [
        0.13211941719055176,
        0.12373830378055573,
        -0.09935177117586136,
        0.9784490466117859
      ],
      "children": [
        65
      ]
    },
    {
      "name": "Pinky2.R_044",
      "translation": [
        4.2338797356933355e-8,
        0.030540496110916138,
        3.725290298461914e-9
      ],
      "rotation": [
        0.09759274870157242,
        0.13744552433490753,
        -0.12182647734880447,
        0.9781322479248047
      ],
      "children": [
        66
      ]
    },
    {
      "name": "Pinky3.R_045",
      "translation": [
        5.21540641784668e-8,
        0.021794728934764862,
        -7.450580596923828e-9
      ],
      "rotation": [
        0.10585609823465347,
        0.09630902856588364,
        -0.06342553347349167,
        0.9876721501350403
      ],
      "children": [
        67
      ]
    },
    {
      "name": "Pinky3.R_end_069",
      "translation": [
        0,
        0.01788775436580181,
        5.551115123125783e-17
      ]
    },
    {
      "name": "ElbowPad.R_046",
      "translation": [
        -0.004660201724618673,
        0.013957420364022255,
        0.000011438503861427307
      ],
      "rotation": [
        0.7395426630973816,
        2.3725439390887004e-8,
        -0.2285517454147339,
        0.6331198811531067
      ],
      "children": [
        69
      ]
    },
    {
      "name": "ElbowPad.R_end_070",
      "translation": [
        2.7755575615628914e-17,
        0.12457869946956635,
        -1.1102230246251565e-16
      ]
    },
    {
      "name": "ShoulderPad.R_00",
      "translation": [
        -0.0003577275201678276,
        0.23326390981674194,
        -0.00734923267737031
      ],
      "rotation": [
        -0.35339483618736267,
        0.6664375066757202,
        -0.5384676456451416,
        0.37553396821022034
      ],
      "children": [
        71
      ]
    },
    {
      "name": "ShoulderPad.R_end_071",
      "translation": [
        0,
        0.14538848400115967,
        0
      ]
    },
    {
      "name": "Femur.L_047",
      "translation": [
        0.12148011475801468,
        0.018521493300795555,
        0.0386916808784008
      ],
      "rotation": [
        0.9997101426124573,
        0.02038574405014515,
        -0.001465600449591875,
        0.012725607492029667
      ],
      "children": [
        73
      ]
    },
    {
      "name": "Shin.L_048",
      "translation": [
        -3.259629011154175e-9,
        0.4167572855949402,
        3.763125278055668e-8
      ],
      "rotation": [
        0.1373782604932785,
        0.0001663658767938614,
        0.005993989761918783,
        0.9905005097389221
      ],
      "children": [
        74,
        77
      ]
    },
    {
      "name": "Feet.L_049",
      "translation": [
        4.423782229423523e-9,
        0.38692644238471985,
        1.979060471057892e-8
      ],
      "rotation": [
        -0.512542188167572,
        -0.017254145815968513,
        0.005548741202801466,
        0.8584707379341125
      ],
      "children": [
        75
      ]
    },
    {
      "name": "FeetTip.L_050",
      "translation": [
        1.0515940118693834e-8,
        0.12081313133239746,
        1.4202669262886047e-8
      ],
      "rotation": [
        -5.739247743719034e-9,
        0.9673612117767334,
        -0.253401517868042,
        7.954860592462865e-8
      ],
      "children": [
        76
      ]
    },
    {
      "name": "FeetTip.L_end_072",
      "translation": [
        0,
        0.09213565289974213,
        0
      ]
    },
    {
      "name": "KneePad.L_051",
      "rotation": [
        -0.7370930314064026,
        -0.018120743334293365,
        0.0003706792485900223,
        0.6755481958389282
      ],
      "children": [
        78
      ]
    },
    {
      "name": "KneePad.L_end_073",
      "translation": [
        -2.7755575615628914e-17,
        0.15088200569152832,
        0
      ]
    },
    {
      "name": "Femur.R_052",
      "translation": [
        -0.12148011475801468,
        0.018521493300795555,
        0.0386916808784008
      ],
      "rotation": [
        0.9868143200874329,
        -0.018825670704245567,
        0.04880185052752495,
        -0.1531713604927063
      ],
      "children": [
        80
      ]
    },
    {
      "name": "Shin.R_053",
      "translation": [
        -4.132743924856186e-9,
        0.41675737500190735,
        -1.1641532182693481e-9
      ],
      "rotation": [
        0.18272064626216888,
        -0.0015292702009901404,
        -0.007241552695631981,
        0.9831370115280151
      ],
      "children": [
        81,
        84
      ]
    },
    {
      "name": "Feet.R_054",
      "translation": [
        1.3969838619232178e-9,
        0.3869265019893646,
        -1.0244548320770264e-8
      ],
      "rotation": [
        -0.6025978922843933,
        0.017754031345248222,
        -0.003645281307399273,
        0.7978391051292419
      ],
      "children": [
        82
      ]
    },
    {
      "name": "FeetTip.R_055",
      "translation": [
        1.3643020047027221e-8,
        0.12081313878297806,
        6.28642737865448e-9
      ],
      "rotation": [
        -6.220352233299309e-9,
        0.9263494610786438,
        -0.37666523456573486,
        -7.89711833704132e-8
      ],
      "children": [
        83
      ]
    },
    {
      "name": "FeetTip.R_end_074",
      "translation": [
        2.7755575615628914e-17,
        0.09213565289974213,
        0
      ]
    },
    {
      "name": "KneePad.R_056",
      "rotation": [
        -0.7507513165473938,
        0.018124530091881752,
        -1.0389517512976454e-7,
        0.6603362560272217
      ],
      "children": [
        85
      ]
    },
    {
      "name": "KneePad.R_end_075",
      "translation": [
        2.7755575615628914e-17,
        0.15088200569152832,
        0
      ]
    }
  ],
  "skins": [
    {
      "inverseBindMatrices": 14,
      "skeleton": 5,
      "joints": [
        5,
        10,
        11,
        12,
        13,
        14,
        15,
        16,
        17,
        18,
        19,
        20,
        21,
        22,
        23,
        24,
        25,
        26,
        27,
        28,
        29,
        30,
        31,
        32,
        33,
        34,
        35,
        36,
        37,
        38,
        39,
        40,
        41,
        42,
        43,
        44,
        45,
        46,
        47,
        48,
        49,
        50,
        51,
        52,
        53,
        54,
        55,
        56,
        57,
        58,
        59,
        60,
        61,
        62,
        63,
        64,
        65,
        66,
        67,
        68,
        69,
        70,
        71,
        72,
        73,
        74,
        75,
        76,
        77,
        78,
        79,
        80,
        81,
        82,
        83,
        84,
        85
      ]
    }
  ],
  "scenes": [
    {
      "name": "Sketchfab_Scene",
      "nodes": [
        0
      ]
    }
  ],
  "scene": 0
}